<svg width="275" height="485" viewBox="0 0 275 485" fill="none" xmlns="http://www.w3.org/2000/svg">
<path d="M39.2846 469.555C47.8776 467.845 57.4526 469.555 118.585 469.555C179.718 469.555 214.826 467.601 231.767 464.915C248.707 462.228 286.516 468.578 276.204 477.615C265.893 486.651 164.987 499.595 147.801 492.268C130.615 484.942 -3.4346 500.572 7.36797 482.743C16.01 468.48 32.2466 468.008 39.2846 469.555Z" fill="black" fill-opacity="0.13"/>
<g clip-path="url(#clip0_6166_1621)">
<g clip-path="url(#clip1_6166_1621)">
<path d="M213.794 73.6612L213.784 73.6612C213.274 74.1012 212.754 74.5412 212.234 74.9712C211.184 75.8112 210.104 76.6112 208.994 77.3712C208.974 77.3712 208.944 77.4012 208.924 77.4112C208.374 77.7812 207.814 78.1412 207.254 78.4912L207.274 78.5111C206.774 78.8212 206.264 79.1212 205.744 79.4112C187.534 89.6611 166.124 86.2512 157.864 71.7812C150.874 59.5412 155.534 43.3612 168.084 32.4512C168.594 32.0012 169.114 31.5712 169.654 31.1412C170.174 30.7212 170.714 30.3212 171.254 29.9212C171.264 29.9212 171.264 29.9112 171.274 29.9112C171.824 29.5112 172.384 29.1212 172.944 28.7512C173.494 28.3812 174.054 28.0312 174.614 27.6912C174.634 27.6912 174.644 27.6712 174.664 27.6612C175.054 27.4212 175.444 27.1912 175.834 26.9712C194.024 16.7112 215.454 20.1312 223.714 34.6112C230.614 46.7212 226.104 62.7512 213.794 73.6612Z" fill="#BC7BFB"/>
<path d="M204.134 34.8807C204.134 34.8807 204.074 34.9407 204.044 34.9607C203.984 35.0107 203.924 35.0707 203.854 35.1107C203.824 35.1307 203.794 35.1607 203.754 35.1807C203.754 35.1807 203.694 35.2207 203.664 35.2407C202.624 35.9007 201.404 35.6807 200.924 34.7507C200.524 33.9607 200.794 32.9207 201.504 32.2207C201.534 32.1907 201.564 32.1607 201.594 32.1407C201.624 32.1107 201.654 32.0907 201.684 32.0607C201.714 32.0307 201.744 32.0107 201.784 31.9907C201.814 31.9707 201.844 31.9407 201.884 31.9207C201.904 31.9007 201.924 31.8907 201.954 31.8807C202.994 31.2207 204.214 31.4407 204.694 32.3707C205.084 33.1507 204.834 34.1807 204.124 34.8807L204.134 34.8807Z" fill="white"/>
<path d="M207.454 40.3612C207.454 40.3612 207.394 40.4212 207.364 40.4412C207.304 40.4912 207.244 40.5512 207.174 40.5912C207.144 40.6112 207.114 40.6412 207.074 40.6612C207.074 40.6612 207.014 40.7012 206.984 40.7212C205.944 41.3812 204.724 41.1612 204.244 40.2312C203.844 39.4412 204.114 38.4012 204.824 37.7012C204.854 37.6712 204.884 37.6412 204.914 37.6212C204.944 37.5912 204.974 37.5712 205.004 37.5412C205.034 37.5112 205.064 37.4912 205.104 37.4712C205.134 37.4512 205.164 37.4212 205.204 37.4012C205.224 37.3812 205.244 37.3712 205.274 37.3612C206.314 36.7012 207.534 36.9212 208.014 37.8512C208.404 38.6312 208.154 39.6612 207.444 40.3612L207.454 40.3612Z" fill="white"/>
<path d="M210.784 45.8407C210.784 45.8407 210.724 45.9007 210.694 45.9207C210.634 45.9707 210.574 46.0307 210.504 46.0707C210.474 46.0907 210.444 46.1207 210.404 46.1407C210.404 46.1407 210.344 46.1807 210.314 46.2007C209.274 46.8607 208.054 46.6407 207.574 45.7107C207.174 44.9207 207.444 43.8807 208.154 43.1807C208.184 43.1507 208.214 43.1207 208.244 43.1007C208.274 43.0707 208.304 43.0507 208.334 43.0207C208.364 42.9907 208.394 42.9707 208.434 42.9507C208.464 42.9307 208.494 42.9007 208.534 42.8807C208.554 42.8607 208.574 42.8507 208.604 42.8407C209.644 42.1807 210.864 42.4007 211.344 43.3307C211.734 44.1107 211.484 45.1407 210.774 45.8407L210.784 45.8407Z" fill="white"/>
<path d="M214.104 51.3212C214.104 51.3212 214.044 51.3812 214.014 51.4012C213.954 51.4512 213.894 51.5112 213.824 51.5512C213.794 51.5712 213.764 51.6012 213.724 51.6212C213.724 51.6212 213.664 51.6612 213.634 51.6812C212.594 52.3412 211.374 52.1212 210.894 51.1912C210.494 50.4012 210.764 49.3612 211.474 48.6612C211.504 48.6312 211.534 48.6012 211.564 48.5812C211.594 48.5512 211.624 48.5312 211.654 48.5012C211.684 48.4712 211.714 48.4512 211.754 48.4312C211.784 48.4112 211.814 48.3812 211.854 48.3612C211.874 48.3412 211.894 48.3312 211.924 48.3212C212.964 47.6612 214.184 47.8812 214.664 48.8112C215.054 49.5912 214.804 50.6212 214.094 51.3212L214.104 51.3212Z" fill="white"/>
<path d="M193.754 33.371C193.754 33.371 193.694 33.431 193.664 33.451C193.604 33.501 193.544 33.561 193.474 33.601C193.444 33.621 193.414 33.651 193.374 33.671C193.374 33.671 193.314 33.711 193.284 33.731C192.244 34.391 191.024 34.171 190.544 33.241C190.144 32.451 190.414 31.411 191.124 30.711C191.154 30.681 191.184 30.651 191.214 30.631C191.244 30.601 191.274 30.581 191.304 30.551C191.334 30.521 191.364 30.501 191.404 30.481C191.434 30.461 191.464 30.431 191.504 30.411C191.524 30.391 191.544 30.381 191.574 30.371C192.614 29.711 193.834 29.931 194.314 30.861C194.704 31.641 194.454 32.671 193.744 33.371L193.754 33.371Z" fill="white"/>
<path d="M197.084 38.8505C197.084 38.8505 197.024 38.9105 196.994 38.9305C196.934 38.9805 196.874 39.0405 196.804 39.0805C196.774 39.1005 196.744 39.1305 196.704 39.1505C196.704 39.1505 196.644 39.1905 196.614 39.2105C195.574 39.8705 194.354 39.6505 193.874 38.7205C193.474 37.9305 193.744 36.8905 194.454 36.1905C194.484 36.1605 194.514 36.1305 194.544 36.1105C194.574 36.0805 194.604 36.0605 194.634 36.0305C194.664 36.0005 194.694 35.9805 194.734 35.9605C194.764 35.9405 194.794 35.9105 194.834 35.8905C194.854 35.8705 194.874 35.8605 194.904 35.8505C195.944 35.1905 197.164 35.4105 197.644 36.3405C198.034 37.1205 197.784 38.1505 197.074 38.8505L197.084 38.8505Z" fill="white"/>
<path d="M200.404 44.3309C200.404 44.3309 200.344 44.3909 200.314 44.4109C200.254 44.4609 200.194 44.5209 200.124 44.5609C200.094 44.5809 200.064 44.6109 200.024 44.6309C200.024 44.6309 199.964 44.6709 199.934 44.6909C198.894 45.3509 197.674 45.1309 197.194 44.2009C196.794 43.4109 197.064 42.3709 197.774 41.6709C197.804 41.6409 197.834 41.6109 197.864 41.5909C197.894 41.5609 197.924 41.5409 197.954 41.5109C197.984 41.4809 198.014 41.4609 198.054 41.4409C198.084 41.4209 198.114 41.3909 198.154 41.3709C198.174 41.3509 198.194 41.3409 198.224 41.3309C199.264 40.6709 200.484 40.8909 200.964 41.8209C201.354 42.6009 201.104 43.6309 200.394 44.3309L200.404 44.3309Z" fill="white"/>
<path d="M203.724 49.8104C203.724 49.8104 203.664 49.8704 203.634 49.8904C203.574 49.9404 203.514 50.0004 203.444 50.0404C203.414 50.0604 203.384 50.0904 203.344 50.1104C203.344 50.1104 203.284 50.1504 203.254 50.1704C202.214 50.8304 200.994 50.6104 200.514 49.6804C200.114 48.8904 200.384 47.8504 201.094 47.1504C201.124 47.1204 201.154 47.0904 201.184 47.0704C201.214 47.0404 201.244 47.0204 201.274 46.9904C201.304 46.9604 201.334 46.9404 201.374 46.9204C201.404 46.9004 201.434 46.8704 201.474 46.8504C201.494 46.8304 201.514 46.8204 201.544 46.8104C202.584 46.1504 203.804 46.3704 204.284 47.3004C204.674 48.0804 204.424 49.1104 203.714 49.8104L203.724 49.8104Z" fill="white"/>
<path d="M207.054 55.2909C207.054 55.2909 206.994 55.3509 206.964 55.3709C206.904 55.4209 206.844 55.4809 206.774 55.5209C206.744 55.5409 206.714 55.5709 206.674 55.5909C206.674 55.5909 206.614 55.6309 206.584 55.6509C205.544 56.3109 204.324 56.0909 203.844 55.1609C203.444 54.3709 203.714 53.3309 204.424 52.6309C204.454 52.6009 204.484 52.5709 204.514 52.5509C204.544 52.5209 204.574 52.5009 204.604 52.4709C204.634 52.4409 204.664 52.4209 204.704 52.4009C204.734 52.3809 204.764 52.3509 204.804 52.3309C204.824 52.3109 204.844 52.3009 204.874 52.2909C205.914 51.6309 207.134 51.8509 207.614 52.7809C208.004 53.5609 207.754 54.5909 207.044 55.2909L207.054 55.2909Z" fill="white"/>
<path d="M210.374 60.7704C210.374 60.7704 210.314 60.8304 210.284 60.8504C210.224 60.9004 210.164 60.9604 210.094 61.0004C210.064 61.0204 210.034 61.0504 209.994 61.0704C209.994 61.0704 209.934 61.1104 209.904 61.1304C208.864 61.7904 207.644 61.5704 207.164 60.6404C206.764 59.8504 207.034 58.8104 207.744 58.1104C207.774 58.0804 207.804 58.0504 207.834 58.0304C207.864 58.0004 207.894 57.9804 207.924 57.9504C207.954 57.9204 207.984 57.9004 208.024 57.8804C208.054 57.8604 208.084 57.8304 208.124 57.8104C208.144 57.7904 208.164 57.7804 208.194 57.7704C209.234 57.1104 210.454 57.3304 210.934 58.2604C211.324 59.0404 211.074 60.0704 210.364 60.7704L210.374 60.7704Z" fill="white"/>
<path d="M186.704 37.3407C186.704 37.3407 186.644 37.4007 186.614 37.4207C186.554 37.4707 186.494 37.5307 186.424 37.5707C186.394 37.5907 186.364 37.6207 186.324 37.6407C186.324 37.6407 186.264 37.6807 186.234 37.7007C185.194 38.3607 183.974 38.1407 183.494 37.2107C183.094 36.4207 183.364 35.3807 184.074 34.6807C184.104 34.6507 184.134 34.6207 184.164 34.6007C184.194 34.5707 184.224 34.5507 184.254 34.5207C184.284 34.4907 184.314 34.4707 184.354 34.4507C184.384 34.4307 184.414 34.4007 184.454 34.3807C184.474 34.3607 184.494 34.3507 184.524 34.3407C185.564 33.6807 186.784 33.9007 187.264 34.8307C187.654 35.6107 187.404 36.6407 186.694 37.3407L186.704 37.3407Z" fill="white"/>
<path d="M190.034 42.8212C190.034 42.8212 189.974 42.8812 189.944 42.9012C189.884 42.9512 189.824 43.0112 189.754 43.0512C189.724 43.0712 189.694 43.1012 189.654 43.1212C189.654 43.1212 189.594 43.1612 189.564 43.1812C188.524 43.8412 187.304 43.6212 186.824 42.6912C186.424 41.9012 186.694 40.8612 187.404 40.1612C187.434 40.1312 187.464 40.1012 187.494 40.0812C187.524 40.0512 187.554 40.0312 187.584 40.0012C187.614 39.9712 187.644 39.9512 187.684 39.9312C187.714 39.9112 187.744 39.8812 187.784 39.8612C187.804 39.8412 187.824 39.8312 187.854 39.8212C188.894 39.1612 190.114 39.3812 190.594 40.3112C190.984 41.0912 190.734 42.1212 190.024 42.8212L190.034 42.8212Z" fill="white"/>
<path d="M193.354 48.3007C193.354 48.3007 193.294 48.3607 193.264 48.3807C193.204 48.4307 193.144 48.4907 193.074 48.5307C193.044 48.5507 193.014 48.5807 192.974 48.6007C192.974 48.6007 192.914 48.6407 192.884 48.6607C191.844 49.3207 190.624 49.1007 190.144 48.1707C189.744 47.3807 190.014 46.3407 190.724 45.6407C190.754 45.6107 190.784 45.5807 190.814 45.5607C190.844 45.5307 190.874 45.5107 190.904 45.4807C190.934 45.4507 190.964 45.4307 191.004 45.4107C191.034 45.3907 191.064 45.3607 191.104 45.3407C191.124 45.3207 191.144 45.3107 191.174 45.3007C192.214 44.6407 193.434 44.8607 193.914 45.7907C194.304 46.5707 194.054 47.6007 193.344 48.3007L193.354 48.3007Z" fill="white"/>
<path d="M196.674 53.7811C196.674 53.7811 196.614 53.8411 196.584 53.8611C196.524 53.9111 196.464 53.9711 196.394 54.0111C196.364 54.0311 196.334 54.0611 196.294 54.0811C196.294 54.0811 196.234 54.1211 196.204 54.1411C195.164 54.8011 193.944 54.5811 193.464 53.6511C193.064 52.8611 193.334 51.8211 194.044 51.1211C194.074 51.0911 194.104 51.0611 194.134 51.0411C194.164 51.0111 194.194 50.9911 194.224 50.9611C194.254 50.9311 194.284 50.9111 194.324 50.8911C194.354 50.8711 194.384 50.8411 194.424 50.8211C194.444 50.8011 194.464 50.7911 194.494 50.7811C195.534 50.1211 196.754 50.3411 197.234 51.2711C197.624 52.0511 197.374 53.0811 196.664 53.7811L196.674 53.7811Z" fill="white"/>
<path d="M200.004 59.2606C200.004 59.2606 199.944 59.3206 199.914 59.3406C199.854 59.3906 199.794 59.4506 199.724 59.4906C199.694 59.5106 199.664 59.5406 199.624 59.5606C199.624 59.5606 199.564 59.6006 199.534 59.6206C198.494 60.2806 197.274 60.0606 196.794 59.1306C196.394 58.3406 196.664 57.3006 197.374 56.6006C197.404 56.5706 197.434 56.5406 197.464 56.5206C197.494 56.4906 197.524 56.4706 197.554 56.4406C197.584 56.4106 197.614 56.3906 197.654 56.3706C197.684 56.3506 197.714 56.3206 197.754 56.3006C197.774 56.2806 197.794 56.2706 197.824 56.2606C198.864 55.6006 200.084 55.8206 200.564 56.7506C200.954 57.5306 200.704 58.5606 199.994 59.2606L200.004 59.2606Z" fill="white"/>
<path d="M203.324 64.7411C203.324 64.7411 203.264 64.8011 203.234 64.8211C203.174 64.8711 203.114 64.9311 203.044 64.9711C203.014 64.9911 202.984 65.0211 202.944 65.0411C202.944 65.0411 202.884 65.0811 202.854 65.1011C201.814 65.7611 200.594 65.5411 200.114 64.6111C199.714 63.8211 199.984 62.7811 200.694 62.0811C200.724 62.0511 200.754 62.0211 200.784 62.0011C200.814 61.9711 200.844 61.9511 200.874 61.9211C200.904 61.8911 200.934 61.8711 200.974 61.8511C201.004 61.8311 201.034 61.8011 201.074 61.7811C201.094 61.7611 201.114 61.7511 201.144 61.7411C202.184 61.0811 203.404 61.3011 203.884 62.2311C204.274 63.0111 204.024 64.0411 203.314 64.7411L203.324 64.7411Z" fill="white"/>
<path d="M179.654 41.3104C179.654 41.3104 179.594 41.3704 179.564 41.3904C179.504 41.4404 179.444 41.5004 179.374 41.5404C179.344 41.5604 179.314 41.5904 179.274 41.6104C179.274 41.6104 179.214 41.6504 179.184 41.6704C178.144 42.3304 176.924 42.1104 176.444 41.1804C176.044 40.3904 176.314 39.3504 177.024 38.6504C177.054 38.6204 177.084 38.5904 177.114 38.5704C177.144 38.5404 177.174 38.5204 177.204 38.4904C177.234 38.4604 177.264 38.4404 177.304 38.4204C177.334 38.4004 177.364 38.3704 177.404 38.3504C177.424 38.3304 177.444 38.3204 177.474 38.3104C178.514 37.6504 179.734 37.8704 180.214 38.8004C180.604 39.5804 180.354 40.6104 179.644 41.3104L179.654 41.3104Z" fill="white"/>
<path d="M182.974 46.7909C182.974 46.7909 182.914 46.8509 182.884 46.8709C182.824 46.9209 182.764 46.9809 182.694 47.0209C182.664 47.0409 182.634 47.0709 182.594 47.0909C182.594 47.0909 182.534 47.1309 182.504 47.1509C181.464 47.8109 180.244 47.5909 179.764 46.6609C179.364 45.8709 179.634 44.8309 180.344 44.1309C180.374 44.1009 180.404 44.0709 180.434 44.0509C180.464 44.0209 180.494 44.0009 180.524 43.9709C180.554 43.9409 180.584 43.9209 180.624 43.9009C180.654 43.8809 180.684 43.8509 180.724 43.8309C180.744 43.8109 180.764 43.8009 180.794 43.7909C181.834 43.1309 183.054 43.3509 183.534 44.2809C183.924 45.0609 183.674 46.0909 182.964 46.7909L182.974 46.7909Z" fill="white"/>
<path d="M186.304 52.2704C186.304 52.2704 186.244 52.3304 186.214 52.3504C186.154 52.4004 186.094 52.4604 186.024 52.5004C185.994 52.5204 185.964 52.5504 185.924 52.5704C185.924 52.5704 185.864 52.6104 185.834 52.6304C184.794 53.2904 183.574 53.0704 183.094 52.1404C182.694 51.3504 182.964 50.3104 183.674 49.6104C183.704 49.5804 183.734 49.5504 183.764 49.5304C183.794 49.5004 183.824 49.4804 183.854 49.4504C183.884 49.4204 183.914 49.4004 183.954 49.3804C183.984 49.3604 184.014 49.3304 184.054 49.3104C184.074 49.2904 184.094 49.2804 184.124 49.2704C185.164 48.6104 186.384 48.8304 186.864 49.7604C187.254 50.5404 187.004 51.5704 186.294 52.2704L186.304 52.2704Z" fill="white"/>
<path d="M189.624 57.7509C189.624 57.7509 189.564 57.8109 189.534 57.8309C189.474 57.8809 189.414 57.9409 189.344 57.9809C189.314 58.0009 189.284 58.0309 189.244 58.0509C189.244 58.0509 189.184 58.0909 189.154 58.1109C188.114 58.7709 186.894 58.5509 186.414 57.6209C186.014 56.8309 186.284 55.7909 186.994 55.0909C187.024 55.0609 187.054 55.0309 187.084 55.0109C187.114 54.9809 187.144 54.9609 187.174 54.9309C187.204 54.9009 187.234 54.8809 187.274 54.8609C187.304 54.8409 187.334 54.8109 187.374 54.7909C187.394 54.7709 187.414 54.7609 187.444 54.7509C188.484 54.0909 189.704 54.3109 190.184 55.2409C190.574 56.0209 190.324 57.0509 189.614 57.7509L189.624 57.7509Z" fill="white"/>
<path d="M192.944 63.2303C192.944 63.2303 192.884 63.2904 192.854 63.3104C192.794 63.3604 192.734 63.4203 192.664 63.4603C192.634 63.4803 192.604 63.5103 192.564 63.5303C192.564 63.5303 192.504 63.5703 192.474 63.5903C191.434 64.2503 190.214 64.0303 189.734 63.1003C189.334 62.3103 189.604 61.2703 190.314 60.5703C190.344 60.5403 190.374 60.5104 190.404 60.4904C190.434 60.4604 190.464 60.4403 190.494 60.4103C190.524 60.3803 190.554 60.3603 190.594 60.3403C190.624 60.3203 190.654 60.2904 190.694 60.2704C190.714 60.2504 190.734 60.2403 190.764 60.2303C191.804 59.5703 193.024 59.7904 193.504 60.7204C193.894 61.5004 193.644 62.5303 192.934 63.2303L192.944 63.2303Z" fill="white"/>
<path d="M196.274 68.7108C196.274 68.7108 196.214 68.7708 196.184 68.7908C196.124 68.8408 196.064 68.9008 195.994 68.9408C195.964 68.9608 195.934 68.9908 195.894 69.0108C195.894 69.0108 195.834 69.0508 195.804 69.0708C194.764 69.7308 193.544 69.5108 193.064 68.5808C192.664 67.7908 192.934 66.7508 193.644 66.0508C193.674 66.0208 193.704 65.9908 193.734 65.9708C193.764 65.9408 193.794 65.9208 193.824 65.8908C193.854 65.8608 193.884 65.8408 193.924 65.8208C193.954 65.8008 193.984 65.7708 194.024 65.7508C194.044 65.7308 194.064 65.7208 194.094 65.7108C195.134 65.0508 196.354 65.2708 196.834 66.2008C197.224 66.9808 196.974 68.0108 196.264 68.7108L196.274 68.7108Z" fill="white"/>
<path d="M172.604 45.2811C172.604 45.2811 172.544 45.3411 172.514 45.3611C172.454 45.4111 172.394 45.4711 172.324 45.5111C172.294 45.5311 172.264 45.5611 172.224 45.5811C172.224 45.5811 172.164 45.6211 172.134 45.6411C171.094 46.3011 169.874 46.0811 169.394 45.1511C168.994 44.3611 169.264 43.3211 169.974 42.6211C170.004 42.5911 170.034 42.5611 170.064 42.5411C170.094 42.5111 170.124 42.4911 170.154 42.4611C170.184 42.4311 170.214 42.4111 170.254 42.3911C170.284 42.3711 170.314 42.3411 170.354 42.3211C170.374 42.3011 170.394 42.2911 170.424 42.2811C171.464 41.6211 172.684 41.8411 173.164 42.7711C173.554 43.5511 173.304 44.5811 172.594 45.2811L172.604 45.2811Z" fill="white"/>
<path d="M175.924 50.7606C175.924 50.7606 175.864 50.8206 175.834 50.8406C175.774 50.8906 175.714 50.9506 175.644 50.9906C175.614 51.0106 175.584 51.0406 175.544 51.0606C175.544 51.0606 175.484 51.1006 175.454 51.1206C174.414 51.7806 173.194 51.5606 172.714 50.6306C172.314 49.8406 172.584 48.8006 173.294 48.1006C173.324 48.0706 173.354 48.0406 173.384 48.0206C173.414 47.9906 173.444 47.9706 173.474 47.9406C173.504 47.9106 173.534 47.8906 173.574 47.8706C173.604 47.8506 173.634 47.8206 173.674 47.8006C173.694 47.7806 173.714 47.7706 173.744 47.7606C174.784 47.1006 176.004 47.3206 176.484 48.2506C176.874 49.0306 176.624 50.0606 175.914 50.7606L175.924 50.7606Z" fill="white"/>
<path d="M179.254 56.2411C179.254 56.2411 179.194 56.3011 179.164 56.3211C179.104 56.3711 179.044 56.4311 178.974 56.4711C178.944 56.4911 178.914 56.5211 178.874 56.5411C178.874 56.5411 178.814 56.5811 178.784 56.6011C177.744 57.2611 176.524 57.0411 176.044 56.1111C175.644 55.3211 175.914 54.2811 176.624 53.5811C176.654 53.5511 176.684 53.5211 176.714 53.5011C176.744 53.4711 176.774 53.4511 176.804 53.4211C176.834 53.3911 176.864 53.3711 176.904 53.3511C176.934 53.3311 176.964 53.3011 177.004 53.2811C177.024 53.2611 177.044 53.2511 177.074 53.2411C178.114 52.5811 179.334 52.8011 179.814 53.7311C180.204 54.5111 179.954 55.5411 179.244 56.2411L179.254 56.2411Z" fill="white"/>
<path d="M182.574 61.7206C182.574 61.7206 182.514 61.7806 182.484 61.8006C182.424 61.8506 182.364 61.9106 182.294 61.9506C182.264 61.9706 182.234 62.0006 182.194 62.0206C182.194 62.0206 182.134 62.0606 182.104 62.0806C181.064 62.7406 179.844 62.5206 179.364 61.5906C178.964 60.8006 179.234 59.7606 179.944 59.0606C179.974 59.0306 180.004 59.0006 180.034 58.9806C180.064 58.9506 180.094 58.9306 180.124 58.9006C180.154 58.8706 180.184 58.8506 180.224 58.8306C180.254 58.8106 180.284 58.7806 180.324 58.7606C180.344 58.7406 180.364 58.7306 180.394 58.7206C181.434 58.0606 182.654 58.2806 183.134 59.2106C183.524 59.9906 183.274 61.0206 182.564 61.7206L182.574 61.7206Z" fill="white"/>
<path d="M185.894 67.2011C185.894 67.2011 185.834 67.2611 185.804 67.2811C185.744 67.3311 185.684 67.3911 185.614 67.4311C185.584 67.4511 185.554 67.4811 185.514 67.5011C185.514 67.5011 185.454 67.5411 185.424 67.5611C184.384 68.2211 183.164 68.0011 182.684 67.0711C182.284 66.2811 182.554 65.2411 183.264 64.5411C183.294 64.5111 183.324 64.4811 183.354 64.4611C183.384 64.4311 183.414 64.4111 183.444 64.3811C183.474 64.3511 183.504 64.3311 183.544 64.3111C183.574 64.2911 183.604 64.2611 183.644 64.2411C183.664 64.2211 183.684 64.2111 183.714 64.2011C184.754 63.5411 185.974 63.7611 186.454 64.6911C186.844 65.4711 186.594 66.5011 185.884 67.2011L185.894 67.2011Z" fill="white"/>
<path d="M189.224 72.6805C189.224 72.6805 189.164 72.7405 189.134 72.7605C189.074 72.8105 189.014 72.8705 188.944 72.9105C188.914 72.9305 188.884 72.9605 188.844 72.9805C188.844 72.9805 188.784 73.0205 188.754 73.0405C187.714 73.7005 186.494 73.4805 186.014 72.5505C185.614 71.7605 185.884 70.7205 186.594 70.0205C186.624 69.9905 186.654 69.9605 186.684 69.9405C186.714 69.9105 186.744 69.8905 186.774 69.8605C186.804 69.8305 186.834 69.8105 186.874 69.7905C186.904 69.7705 186.934 69.7405 186.974 69.7205C186.994 69.7005 187.014 69.6905 187.044 69.6805C188.084 69.0205 189.304 69.2405 189.784 70.1705C190.174 70.9505 189.924 71.9805 189.214 72.6805L189.224 72.6805Z" fill="white"/>
<path d="M168.874 54.7303C168.874 54.7303 168.814 54.7904 168.784 54.8104C168.724 54.8604 168.664 54.9203 168.594 54.9603C168.564 54.9803 168.534 55.0103 168.494 55.0303C168.494 55.0303 168.434 55.0703 168.404 55.0903C167.364 55.7503 166.144 55.5303 165.664 54.6003C165.264 53.8103 165.534 52.7703 166.244 52.0703C166.274 52.0403 166.304 52.0104 166.334 51.9904C166.364 51.9604 166.394 51.9403 166.424 51.9103C166.454 51.8803 166.484 51.8603 166.524 51.8403C166.554 51.8203 166.584 51.7904 166.624 51.7704C166.644 51.7504 166.664 51.7403 166.694 51.7303C167.734 51.0703 168.954 51.2904 169.434 52.2204C169.824 53.0004 169.574 54.0303 168.864 54.7303L168.874 54.7303Z" fill="white"/>
<path d="M172.194 60.2108C172.194 60.2108 172.134 60.2708 172.104 60.2908C172.044 60.3408 171.984 60.4008 171.914 60.4408C171.884 60.4608 171.854 60.4908 171.814 60.5108C171.814 60.5108 171.754 60.5508 171.724 60.5708C170.684 61.2308 169.464 61.0108 168.984 60.0808C168.584 59.2908 168.854 58.2508 169.564 57.5508C169.594 57.5208 169.624 57.4908 169.654 57.4708C169.684 57.4408 169.714 57.4208 169.744 57.3908C169.774 57.3608 169.804 57.3408 169.844 57.3208C169.874 57.3008 169.904 57.2708 169.944 57.2508C169.964 57.2308 169.984 57.2208 170.014 57.2108C171.054 56.5508 172.274 56.7708 172.754 57.7008C173.144 58.4808 172.894 59.5108 172.184 60.2108L172.194 60.2108Z" fill="white"/>
<path d="M175.524 65.6913C175.524 65.6913 175.464 65.7513 175.434 65.7713C175.374 65.8213 175.314 65.8813 175.244 65.9213C175.214 65.9413 175.184 65.9713 175.144 65.9913C175.144 65.9913 175.084 66.0313 175.054 66.0513C174.014 66.7113 172.794 66.4913 172.314 65.5613C171.914 64.7713 172.184 63.7313 172.894 63.0313C172.924 63.0013 172.954 62.9713 172.984 62.9513C173.014 62.9213 173.044 62.9013 173.074 62.8713C173.104 62.8413 173.134 62.8213 173.174 62.8013C173.204 62.7813 173.234 62.7513 173.274 62.7313C173.294 62.7113 173.314 62.7013 173.344 62.6913C174.384 62.0313 175.604 62.2513 176.084 63.1813C176.474 63.9613 176.224 64.9913 175.514 65.6913L175.524 65.6913Z" fill="white"/>
<path d="M178.844 71.1708C178.844 71.1708 178.784 71.2308 178.754 71.2508C178.694 71.3008 178.634 71.3608 178.564 71.4008C178.534 71.4208 178.504 71.4508 178.464 71.4708C178.464 71.4708 178.404 71.5108 178.374 71.5308C177.334 72.1908 176.114 71.9708 175.634 71.0408C175.234 70.2508 175.504 69.2108 176.214 68.5108C176.244 68.4808 176.274 68.4508 176.304 68.4308C176.334 68.4008 176.364 68.3808 176.394 68.3508C176.424 68.3208 176.454 68.3008 176.494 68.2808C176.524 68.2608 176.554 68.2308 176.594 68.2108C176.614 68.1908 176.634 68.1808 176.664 68.1708C177.704 67.5108 178.924 67.7308 179.404 68.6608C179.794 69.4408 179.544 70.4708 178.834 71.1708L178.844 71.1708Z" fill="white"/>
<path d="M89.9642 103.181C89.9642 103.181 88.3842 105.031 90.8542 109.361C93.3242 113.691 95.7342 113.291 95.7342 113.291C95.7342 113.291 123.914 95.9412 127.654 93.8412C131.394 91.7312 127.894 83.7912 123.384 86.3412C118.864 88.8912 89.9642 103.181 89.9642 103.181Z" fill="#BC7BFB"/>
<path d="M95.3243 112.36C100.194 109.36 122.994 95.3504 126.334 93.4704L126.404 93.4304C122.874 91.4404 94.9643 111.55 95.3243 112.36Z" fill="white"/>
<path d="M95.6442 111.56C95.1042 109.74 94.9942 107.86 95.8342 106.1C96.8842 103.86 98.7342 102.13 100.604 100.55C105.044 96.8303 109.744 93.6303 115.474 92.3003C119.694 91.3303 124.344 91.2003 128.154 93.4603C131.044 90.9403 127.654 83.9103 123.374 86.3303C118.864 88.8803 89.9642 103.17 89.9642 103.17C89.9642 103.17 88.3842 105.02 90.8542 109.35C93.3242 113.68 95.7342 113.28 95.7342 113.28L96.2042 112.99C95.9842 112.53 95.8042 112.05 95.6542 111.56L95.6442 111.56Z" fill="#BC7BFB"/>
<path d="M97.9043 111.951L89.7343 106.781C89.8943 107.341 90.1043 107.881 90.3543 108.401L96.9043 112.551C97.1743 112.401 97.5143 112.171 97.8943 111.951L97.9043 111.951Z" fill="white"/>
<path d="M101.984 109.441L91.1443 102.581L90.0543 103.131L100.994 110.051C101.324 109.841 101.654 109.641 101.984 109.441Z" fill="white"/>
<path d="M107.414 106.111L97.1443 99.6211C96.7743 99.8011 96.4143 99.9911 96.0543 100.171L106.424 106.731L107.414 106.111Z" fill="white"/>
<path d="M112.854 102.781L103.114 96.6211L102.024 97.1711L111.834 103.381L112.844 102.771L112.854 102.781Z" fill="white"/>
<path d="M118.294 99.4614L109.124 93.6514L108.034 94.2014L117.284 100.041L118.284 99.4514L118.294 99.4614Z" fill="white"/>
<path d="M123.754 96.1509L115.054 90.6709C114.704 90.8409 114.334 91.0209 113.964 91.2309L122.764 96.7609L123.754 96.1609L123.754 96.1509Z" fill="white"/>
<path d="M127.054 91.4711L120.964 87.6211L119.894 88.1811L128.144 93.4011L127.054 91.4711Z" fill="white"/>
<path d="M132.644 90.5409C136.814 88.1909 170.744 88.6109 179.974 88.9209C178.174 86.4809 158.954 80.2009 158.954 80.2009C158.954 80.2009 162.664 83.9009 157.044 84.1609C149.334 84.5309 140.354 84.6909 138.564 84.7309C135.714 84.7809 135.444 83.3009 136.664 81.4409C137.404 80.3109 142.204 72.6509 146.744 66.0809C149.024 62.7909 151.184 66.6209 151.184 66.6209C151.184 66.6209 158.434 39.9009 154.404 44.0609C149.764 53.7009 133.204 81.0509 128.684 83.5909C124.154 86.1309 128.464 92.8809 132.644 90.5309L132.644 90.5409Z" fill="#352E35"/>
<path d="M169.154 27.1311C169.154 27.1311 169.104 27.1511 169.084 27.1711C169.104 27.1511 169.124 27.1411 169.144 27.1211C169.144 27.1211 169.144 27.1211 169.154 27.1211L169.154 27.1311Z" fill="#352E35"/>
<path d="M212.444 79.2612C212.134 79.4712 211.824 79.6812 211.514 79.8812C211.814 79.6812 212.124 79.4612 212.414 79.2412L212.424 79.2412C212.424 79.2412 212.424 79.2512 212.444 79.2612Z" fill="#352E35"/>
<path d="M227.524 32.4611C223.384 25.2011 216.274 20.4311 207.864 18.4311C201.864 16.9911 195.204 16.9611 188.484 18.4311C183.644 19.4811 178.784 21.3011 174.114 23.9411C173.524 24.2711 172.944 24.6111 172.374 24.9711C171.974 25.2211 171.564 25.4711 171.174 25.7411C170.984 25.8511 170.804 25.9711 170.614 26.1011C170.304 26.3111 169.994 26.5211 169.684 26.7511C169.504 26.8711 169.324 27.0011 169.154 27.1311C169.134 27.1411 169.104 27.1511 169.084 27.1711C169.054 27.1911 169.024 27.2111 168.994 27.2311C168.974 27.2511 168.954 27.2611 168.934 27.2811C168.454 27.6311 167.984 27.9811 167.524 28.3411C167.444 28.4111 167.364 28.4711 167.294 28.5211C162.404 32.3811 158.474 36.9311 155.634 41.8111C155.194 42.5511 154.784 43.3111 154.414 44.0711C154.244 44.3811 154.094 44.7011 153.944 45.0211C150.614 52.0811 149.544 59.6111 151.164 66.5611C151.404 67.6211 151.714 68.6611 152.084 69.6911C152.604 71.1311 153.254 72.5411 154.034 73.9111C154.214 74.2211 154.394 74.5211 154.574 74.8211C155.814 76.8111 157.284 78.6111 158.954 80.1911C158.954 80.1911 158.961 80.1945 158.974 80.2011C160.304 81.4711 161.754 82.6111 163.314 83.6111C163.834 83.9411 164.374 84.2611 164.924 84.5711C165.114 84.6811 165.314 84.7911 165.514 84.8911C165.784 85.0311 166.054 85.1711 166.324 85.3011C166.634 85.4611 166.944 85.6011 167.264 85.7511C167.614 85.9011 167.974 86.0611 168.324 86.2011C171.904 87.7011 175.834 88.6111 179.974 88.9111C188.774 89.5711 198.464 87.4911 207.444 82.4311C208.154 82.0311 208.854 81.6111 209.544 81.1811C209.864 80.9811 210.184 80.7711 210.504 80.5611C210.794 80.3711 211.084 80.1811 211.374 79.9811C211.424 79.9511 211.464 79.9211 211.514 79.8811C211.814 79.6811 212.124 79.4611 212.414 79.2411L212.424 79.2411C212.584 79.1311 212.734 79.0211 212.884 78.9111L212.904 78.8911C213.454 78.4811 213.984 78.0711 214.514 77.6411C215.024 77.2311 215.514 76.8211 216.004 76.4011C216.024 76.3811 216.054 76.3611 216.074 76.3411C230.104 64.1611 235.304 46.1011 227.524 32.4611ZM212.884 72.8511C212.404 73.2811 211.904 73.7011 211.394 74.1111C210.404 74.9211 209.364 75.6911 208.274 76.4211C208.254 76.4311 208.234 76.4511 208.214 76.4611C208.064 76.5611 207.934 76.6611 207.784 76.7611C207.404 77.0211 207.024 77.2711 206.624 77.5111C206.144 77.8111 205.654 78.1011 205.154 78.3811C187.664 88.2311 167.094 84.9511 159.154 71.0511C152.444 59.2911 156.924 43.7511 168.974 33.2711C169.214 33.0511 169.464 32.8311 169.714 32.6311C169.924 32.4511 170.144 32.2811 170.354 32.1011C170.384 32.0711 170.434 32.0511 170.484 32.0111C170.984 31.6011 171.504 31.2211 172.024 30.8411C172.034 30.8411 172.034 30.8311 172.044 30.8311C172.574 30.4311 173.094 30.0611 173.644 29.7111C174.174 29.3611 174.714 29.0111 175.254 28.6911C175.274 28.6911 175.274 28.6711 175.294 28.6611C175.674 28.4311 176.044 28.2111 176.424 28.0011C193.894 18.1411 214.484 21.4311 222.414 35.3411C229.044 46.9711 224.714 62.3711 212.884 72.8511Z" fill="#352E35"/>
<path d="M169.684 26.751C169.504 26.871 169.324 27.001 169.154 27.131C169.134 27.141 169.104 27.151 169.084 27.171C169.104 27.151 169.124 27.141 169.144 27.121C169.324 26.991 169.504 26.861 169.684 26.751Z" fill="#352E35"/>
<path d="M169.654 31.1406C169.384 31.3606 169.114 31.5706 168.854 31.7906C169.074 31.6006 169.294 31.4206 169.514 31.2406C169.554 31.2106 169.604 31.1806 169.654 31.1406Z" fill="#352E35"/>
<path d="M208.924 77.4111C208.774 77.5211 208.624 77.6211 208.474 77.7211C208.474 77.7211 208.474 77.7311 208.484 77.7311C208.084 78.0011 207.684 78.2611 207.274 78.5111L207.254 78.4911C207.814 78.1411 208.374 77.7811 208.924 77.4111Z" fill="#352E35"/>
<path d="M208.994 77.3707C210.104 76.6107 211.184 75.8107 212.234 74.9707C211.204 75.8107 210.124 76.6107 208.994 77.3707Z" fill="#352E35"/>
<path d="M213.784 73.6504L213.794 73.6504C213.294 74.1004 212.774 74.5404 212.234 74.9704C212.754 74.5404 213.274 74.1004 213.784 73.6504Z" fill="#352E35"/>
<path d="M224.624 33.9013C232.744 48.1413 225.374 67.6513 208.194 78.1213C208.674 77.8813 209.154 77.6213 209.624 77.3513C227.424 67.3413 234.284 47.7913 225.964 33.1613C217.654 18.5413 196.054 15.9813 180.964 23.2813C176.424 25.4913 172.154 28.1913 168.214 31.3413C170.244 30.0213 177.914 24.8613 183.734 22.7313C200.044 16.7513 217.344 21.1513 224.624 33.9013Z" fill="white"/>
<path d="M155.444 73.3304C146.954 58.4304 155.604 43.3504 158.914 37.4004C149.674 48.0504 147.484 62.4604 154.114 74.0804C161.384 86.8304 177.754 91.1204 191.774 87.9704C183.584 88.9404 163.044 86.6804 155.444 73.3304Z" fill="#2B242A"/>
<path d="M133.144 91.4206C132.874 91.5506 132.554 91.5706 132.264 91.4706C131.974 91.3706 131.744 91.1606 131.604 90.8906L127.944 84.4706C127.774 84.2206 127.714 83.9106 127.784 83.6106C127.844 83.3106 128.024 83.0506 128.274 82.8906C128.544 82.7606 128.864 82.7406 129.154 82.8406C129.444 82.9406 129.674 83.1506 129.804 83.4206L133.464 89.8406C133.634 90.0906 133.694 90.4006 133.624 90.7006C133.564 91.0006 133.384 91.2606 133.134 91.4306L133.144 91.4206Z" fill="#2B242A"/>
<path d="M127.934 83.7607L124.314 85.8007L128.584 93.3007L132.204 91.2607L127.934 83.7607Z" fill="#171215"/>
<path d="M128.884 93.8311C128.604 93.9611 128.294 93.9811 128.004 93.8811C127.714 93.7811 127.484 93.5711 127.344 93.3011L123.684 86.8811C123.514 86.6311 123.454 86.3211 123.524 86.0211C123.584 85.7211 123.764 85.4611 124.014 85.2911C124.294 85.1611 124.604 85.1411 124.894 85.2511C125.184 85.3511 125.414 85.5611 125.544 85.8311L129.204 92.2511C129.374 92.5011 129.424 92.8111 129.364 93.1111C129.304 93.4111 129.124 93.6711 128.874 93.8411L128.884 93.8311Z" fill="#2B242A"/>
</g>
</g>
<path d="M88.2737 196.26C86.7024 191.375 87.619 153.519 88.2737 135.202L97.2266 138.377C96.49 145.704 105.214 168.906 105.214 170.894C110.434 167.581 119.267 165.08 124.855 164.021C128.374 167.848 135.167 175.793 134.185 176.966C132.957 178.431 90.2378 202.366 88.2737 196.26Z" fill="#FF7CA6"/>
<mask id="mask0_6166_1621" style="mask-type:alpha" maskUnits="userSpaceOnUse" x="87" y="135" width="48" height="63">
<path d="M88.2737 196.26C86.7024 191.375 87.619 153.519 88.2737 135.202L97.2266 138.377C96.49 145.704 105.214 168.906 105.214 170.894C110.434 167.581 119.267 165.08 124.855 164.021C128.374 167.848 135.167 175.793 134.185 176.966C132.957 178.431 90.2378 202.366 88.2737 196.26Z" fill="#FF7CA6"/>
</mask>
<g mask="url(#mask0_6166_1621)">
<path d="M85.328 199.679C83.7568 194.794 84.6733 156.938 85.328 138.621L94.281 141.796C93.5444 149.123 102.268 172.325 102.268 174.313C107.488 171 116.321 168.499 121.909 167.44C125.428 171.267 132.221 179.212 131.239 180.385C130.011 181.85 87.2921 205.785 85.328 199.679Z" fill="#FB94B5"/>
<path d="M83.8529 204.564C82.2816 199.679 83.1982 161.823 83.8529 143.506L92.3148 140.087C91.5782 147.414 100.793 177.21 100.793 179.198C106.013 175.885 114.846 173.384 120.434 172.325C123.953 176.152 130.746 184.097 129.764 185.27C128.536 186.735 85.817 210.67 83.8529 204.564Z" fill="#FFAFC9"/>
<path d="M88.8782 147.414C89.0746 146.046 88.1417 141.797 87.6506 139.843L80.5308 196.504C84.0498 197.563 91.4315 199.777 92.8064 200.168C94.525 200.656 106.865 192.714 105.082 192.841C98.2077 193.329 90.5968 196.26 89.8603 195.283C89.1237 194.306 89.3692 192.597 89.3692 189.422C89.3692 186.872 89.1237 174.279 88.8782 172.325C88.6327 170.372 88.8782 165.487 88.8782 164.266C88.8782 163.045 88.6327 149.124 88.8782 147.414Z" fill="#FEF2F7"/>
</g>
<path d="M138.658 406.772C132.936 399.759 144.304 316.711 150.703 276.064C162.864 271.527 175.839 256.842 180.806 250.067C180.892 251.207 182.496 255.483 188.221 263.473C193.946 271.463 197.527 279.478 198.602 282.486C199.492 311.204 184.489 362.313 176.876 384.278C200.432 386.31 227.073 411.732 237.664 424.488L232.329 442.581C228.965 440.313 216.681 433.552 194.454 424.644C166.671 413.51 145.809 415.539 138.658 406.772Z" fill="url(#paint0_linear_6166_1621)"/>
<mask id="mask1_6166_1621" style="mask-type:alpha" maskUnits="userSpaceOnUse" x="137" y="250" width="101" height="193">
<path d="M138.658 406.772C132.936 399.759 144.304 316.711 150.703 276.064C162.864 271.527 175.839 256.842 180.806 250.067C180.892 251.207 182.496 255.483 188.221 263.473C193.946 271.463 197.527 279.478 198.602 282.486C199.492 311.204 184.489 362.313 176.876 384.278C200.432 386.31 227.073 411.732 237.664 424.488L232.329 442.581C228.965 440.313 216.681 433.552 194.454 424.644C166.671 413.51 145.809 415.539 138.658 406.772Z" fill="#F89AB8"/>
</mask>
<g mask="url(#mask1_6166_1621)">
<path d="M132.784 411.677C127.063 404.664 138.43 321.616 144.829 280.969C156.99 276.432 168.192 259.8 173.16 253.025C173.246 254.164 176.622 260.388 182.347 268.378C188.072 276.368 181.318 277.826 182.393 280.834C183.257 308.734 180.386 359.123 173.139 382.224C172.585 383.15 172.438 384.137 172.305 384.834C172.237 385.189 172.316 385.57 172.572 385.826C173.044 386.297 173.831 387.005 174.385 387.104C198.704 390.924 237.259 426.781 247.492 439.106L226.456 447.486C223.092 445.218 210.808 438.457 188.581 429.549C160.797 418.415 139.936 420.444 132.784 411.677Z" fill="#FBC6D7"/>
<mask id="mask2_6166_1621" style="mask-type:alpha" maskUnits="userSpaceOnUse" x="131" y="253" width="117" height="195">
<path d="M132.784 411.677C127.063 404.664 138.43 321.616 144.829 280.969C156.99 276.432 168.192 259.8 173.16 253.025C173.246 254.164 176.622 260.388 182.347 268.378C188.072 276.368 181.318 277.826 182.393 280.834C183.257 308.734 180.386 359.123 173.139 382.224C172.585 383.15 172.438 384.137 172.305 384.834C172.237 385.189 172.316 385.57 172.572 385.826C173.044 386.297 173.831 387.005 174.385 387.104C198.704 390.924 237.259 426.781 247.492 439.106L226.456 447.486C223.092 445.218 210.808 438.457 188.581 429.549C160.797 418.415 139.936 420.444 132.784 411.677Z" fill="#FBC6D7"/>
</mask>
<g mask="url(#mask2_6166_1621)">
<path d="M166.892 366.86C171.911 329.475 162.512 295.56 167.163 291.636C187.417 347.573 247.929 437.786 243.796 435.457L234.958 435.488C229.742 419.144 179.096 399.788 169.731 390.052C166.134 386.313 166.011 372.155 166.892 366.86Z" fill="#FEB3CB"/>
</g>
<path d="M152.254 310.74C155.171 302.719 158.529 281.084 157.264 270.668C136.697 286.129 131.697 396.296 131.73 405.332C131.756 412.561 188.836 445.75 217.373 461.441L243.083 442.543C231.758 433.872 187.948 417.585 182.827 413.696C176.426 408.834 149.168 407.223 145.961 403.083C142.755 398.942 145.876 379.637 145.83 366.937C145.784 354.237 148.608 320.767 152.254 310.74Z" fill="#FEF2F7"/>
</g>
<path d="M152.722 287.847L124.243 258.783C88.6434 291.022 82.5056 318.864 75.6312 331.564C68.7569 344.264 70.721 340.845 65.0742 359.406C59.4274 377.968 37.3312 426.325 37.8223 434.141C38.2151 440.393 47.8065 440.654 52.553 440.002C94.3884 378.261 98.5458 357.29 95.0268 354.277C123.506 336.302 145.111 302.338 152.722 287.847Z" fill="#FF7CA6"/>
<mask id="mask3_6166_1621" style="mask-type:alpha" maskUnits="userSpaceOnUse" x="37" y="258" width="116" height="183">
<path d="M152.722 287.847L124.243 258.783C88.6434 291.022 82.5056 318.864 75.6312 331.564C68.7569 344.264 70.721 340.845 65.0742 359.406C59.4274 377.968 37.3312 426.325 37.8223 434.141C38.2151 440.393 47.8065 440.654 52.553 440.002C94.3884 378.261 98.5458 357.29 95.0268 354.277C123.506 336.302 145.111 302.338 152.722 287.847Z" fill="#FF7CA6"/>
</mask>
<g mask="url(#mask3_6166_1621)">
<path d="M147.813 287.847L119.334 258.783C83.7344 291.022 77.5965 318.864 70.7222 331.564C63.8478 344.264 65.8119 340.845 60.1651 359.406C54.5183 377.968 32.4222 426.325 32.9132 434.141C33.306 440.393 42.8974 440.654 47.644 440.002C84.2652 385.956 89.7238 367.059 90.6007 356.72C90.7255 355.248 91.8282 353.789 91.5827 352.324C92.8326 351.535 94.7827 350.964 96.0019 350.126C122.563 331.858 140.536 301.702 147.813 287.847Z" fill="#FEB3CB"/>
<path d="M137.74 273.681L116.388 255.363C80.7889 287.602 74.6511 315.444 67.7767 328.144C60.9024 340.844 62.8665 337.425 57.2197 355.986C51.5729 374.548 29.4767 422.905 29.9678 430.721C30.3606 436.973 40.926 438.455 45.6725 437.804C60.8943 414.357 83.5867 366.326 84.4636 355.986C84.5884 354.514 85.6911 353.055 85.4456 351.59C86.6955 350.801 91.8373 347.544 93.0565 346.706C119.618 328.439 130.463 287.536 137.74 273.681Z" fill="#FBC6D7"/>
<path d="M99.9294 295.175C102.09 292.439 118.998 271.728 127.181 261.715C126.117 259.924 123.155 256.635 119.816 257.807C115.642 259.273 101.402 268.065 79.7974 288.336C58.1922 308.607 29.9582 430.478 28.4852 433.653C27.3067 436.193 34.5411 436.991 38.3057 437.073C45.2619 419.244 59.7635 382.218 62.1204 376.748C65.0666 369.909 73.905 343.044 75.1326 339.869C76.3602 336.694 97.2287 298.594 99.9294 295.175Z" fill="#FEF2F7"/>
</g>
<path d="M159.586 328.633C137.392 299.716 114.494 282.392 105.819 277.344C106.997 273.632 117.604 263.586 122.759 259.027C142.597 292.242 170.143 270.261 181.437 255.119C208.541 270.164 201.078 305.349 193.958 321.061C186.02 324.318 170.143 330.391 170.143 328.633V312.513C166.804 317.203 161.714 325.213 159.586 328.633Z" fill="url(#paint1_linear_6166_1621)"/>
<mask id="mask4_6166_1621" style="mask-type:alpha" maskUnits="userSpaceOnUse" x="105" y="255" width="96" height="74">
<path d="M159.586 328.633C137.392 299.716 114.494 282.392 105.819 277.344C106.997 273.632 117.604 263.586 122.759 259.027C142.597 292.242 170.143 270.261 181.437 255.119C208.541 270.164 201.078 305.349 193.958 321.061C186.02 324.318 170.143 330.391 170.143 328.633V312.513C166.804 317.203 161.714 325.213 159.586 328.633Z" fill="url(#paint2_linear_6166_1621)"/>
</mask>
<g mask="url(#mask4_6166_1621)">
<path d="M104.59 270.506C113.052 276.7 118.415 279.266 132.579 293.708C148.537 306.896 158.959 318.986 162.531 322.527C168.447 328.391 166.558 326.637 166.95 328.144C182.172 324.237 194.399 319.694 202.059 314.223" stroke="white" stroke-opacity="0.5"/>
<path d="M175.299 260.256C181.028 259.768 200.832 280.528 184.628 328.153" stroke="white" stroke-opacity="0.49"/>
<path d="M167.935 285.404C166.953 290.045 160.897 292.487 157.624 293.464V289.8C160.57 291.168 164.744 288.824 167.935 285.404Z" fill="url(#paint3_linear_6166_1621)"/>
<path d="M133.806 280.764C140.353 283.857 156.049 288.188 166.459 280.764C164.249 286.951 154.625 295.613 133.806 280.764Z" fill="url(#paint4_linear_6166_1621)"/>
<path d="M179.72 254.481C183.39 256.515 189.626 267.027 191.995 283.937C192.987 291.013 196.096 297.603 194.205 305.674C192.654 312.294 188.832 322.508 184.384 329.216L212.618 317.737C210.818 298.199 205.351 258.194 197.888 254.481C190.424 250.769 182.666 252.935 179.72 254.481Z" fill="#0017DF" fill-opacity="0.5"/>
<path d="M110.728 276.367C113.92 279.786 129.387 293.951 129.142 296.149L103.609 277.099L106.064 268.796L122.513 256.584C127.423 258.945 136.556 264.399 133.807 267.33C131.057 270.261 127.096 267.086 125.459 265.132C120.549 267.33 119.567 267.33 117.848 268.796C116.13 273.436 110.728 275.878 110.728 276.367Z" fill="url(#paint5_linear_6166_1621)"/>
</g>
<path d="M172.915 208.96C174.486 226.74 180.935 248.607 183.963 257.318C153.765 299.57 126.267 273.193 123.321 263.668C120.964 256.048 121.193 226.138 121.603 212.135C114.974 208.96 101.471 192.109 111.782 183.805C120.031 177.162 135.363 164.51 143.383 157.428H157.132C173.336 169.395 170.951 186.735 172.915 208.96Z" fill="url(#paint6_linear_6166_1621)"/>
<mask id="mask5_6166_1621" style="mask-type:alpha" maskUnits="userSpaceOnUse" x="108" y="157" width="76" height="124">
<path d="M172.915 208.96C174.486 226.74 180.935 248.607 183.963 257.318C153.765 299.57 126.267 273.193 123.321 263.668C120.964 256.048 121.193 226.138 121.603 212.135C114.974 208.96 101.471 192.109 111.782 183.805C120.031 177.162 135.363 164.51 143.383 157.428H157.132C173.336 169.395 170.951 186.735 172.915 208.96Z" fill="url(#paint7_linear_6166_1621)"/>
</mask>
<g mask="url(#mask5_6166_1621)">
<path d="M161.06 176.476C161.06 187.94 152.496 193.818 141.604 193.818C130.712 193.818 120.305 184.524 120.305 173.06C120.305 161.596 128.869 155.718 139.76 155.718C150.652 155.718 161.06 165.011 161.06 176.476Z" fill="#6B85FF"/>
<path d="M159.223 175.834C159.223 186.269 151.278 191.619 141.173 191.619C131.069 191.619 120.305 182.427 120.305 171.992C120.305 161.556 128.249 156.206 138.354 156.206C148.459 156.206 159.223 165.398 159.223 175.834Z" fill="#4464FE"/>
<path d="M125.705 227.697C127.078 222.131 118.91 213.478 116.867 211.158L112.938 262.562L118.823 270.018C126.915 267.781 120.878 256.03 125.705 245.839C128.648 239.626 123.989 234.656 125.705 227.697Z" fill="url(#paint8_linear_6166_1621)"/>
<path d="M130.594 236.314C132.312 244.537 125.929 255.364 146.307 268.064C133.54 268.064 124.505 262.496 130.594 236.314Z" fill="url(#paint9_linear_6166_1621)"/>
<path d="M132.227 240.042C133.472 242.599 132.316 246.673 139.971 249.171C135.842 250.216 132.453 249.128 132.227 240.042Z" fill="url(#paint10_linear_6166_1621)"/>
<path d="M164.116 189.842C164.116 182.515 163.969 174.779 159.068 168.417C163.069 169.874 168.781 179.584 164.116 189.842Z" fill="url(#paint11_linear_6166_1621)"/>
<path d="M120.796 212.135C127.305 211.137 130.616 212.868 141.258 206.518C139.494 208.461 123.251 223.614 120.796 212.135Z" fill="#4262FE"/>
<path d="M204.271 238.164C199.74 247.191 192.45 238.164 184.077 238.164C168.808 219.031 171.552 195.63 168.808 178.817C160.681 149.872 136.054 161.386 124.725 154.027C131.949 148.222 160.336 142.39 168.808 150.239C179.398 160.051 204.271 227.616 204.271 238.164Z" fill="#2D42FF"/>
<path d="M106.554 192.338L116.374 170.602L122.267 173.711L120.548 178.187C119.013 181.52 115.592 186.793 111.219 189.681C109.009 189.681 110.596 198.817 109.991 199.177C108.949 199.797 107.333 191.995 106.554 192.338Z" fill="url(#paint12_linear_6166_1621)"/>
</g>
<path d="M263.422 431.966L258.257 429.298C250.376 490.14 229.751 489.482 221.372 480.964C242.335 506.777 258.597 455.43 258.841 454.94C264.508 447.104 266.879 437.327 267.105 431.953L263.422 431.966Z" fill="#CAF4F3"/>
<path d="M237.355 420.581C237.171 423.28 236.319 427.233 233.095 432.82C231.168 430.555 228.476 427.572 227.065 426.724C224.617 428.443 221.706 438.222 220.973 439.202C222.55 440.759 225.734 443.093 227.129 444.064C222.054 452.875 221.012 472.336 221.125 480.965C241.823 501.406 256.146 456.986 260.721 432.22C258.148 426.759 246.696 423.804 241.292 423.009L237.355 420.581Z" fill="#F6FEFD"/>
<path d="M223.912 472.729C225.876 474.682 230.541 476.636 236.678 472.729" stroke="#14D1A4" stroke-width="3" stroke-linecap="round" stroke-linejoin="round"/>
<path d="M224.894 465.891C226.858 467.844 232.995 469.31 237.66 465.891" stroke="#14D1A4" stroke-width="3" stroke-linecap="round" stroke-linejoin="round"/>
<path d="M226.857 459.541C228.368 460.81 231.767 462.228 236.678 459.541" stroke="#14D1A4" stroke-width="3" stroke-linecap="round" stroke-linejoin="round"/>
<path d="M221.365 479.01C227.111 483.874 240.738 486.17 249.271 456.44" stroke="#CEF4F4" stroke-width="2" stroke-linecap="round" stroke-linejoin="round"/>
<path d="M245.706 442.79C238.139 444.352 234.596 444.822 229.755 444.801C229.761 446.365 230.584 447.566 230.994 447.972C236.695 449.319 243.178 445.079 245.706 442.79Z" stroke="#14D1A4" stroke-linecap="round"/>
<path d="M229.761 446.268C232.715 448.455 238.431 453.856 237.66 457.962C235.691 456.667 231.355 452.514 229.761 446.268Z" stroke="#14D1A4"/>
<path d="M213.338 451.999C220.269 448.771 221.814 447.825 228.288 444.871C228.642 446.562 228.226 446.543 228.152 447.114C223.658 454.413 216.746 452.264 213.338 451.999Z" stroke="#14D1A4" stroke-linecap="round"/>
<path d="M228.579 445.863C226.456 448.857 222.715 455.76 224.732 459.423C226.198 457.582 229.019 452.293 228.579 445.863Z" stroke="#14D1A4"/>
<path d="M229.266 444.572C229.67 444.57 229.994 444.894 229.996 445.29C229.997 445.686 229.675 446.013 229.271 446.014C228.867 446.016 228.542 445.691 228.541 445.295C228.54 444.899 228.862 444.573 229.266 444.572Z" fill="#14D1A4" stroke="#14D1A4"/>
<path d="M17.7046 486.887C0.20406 490.72 0.924182 478.33 3.47181 471.656C7.38999 491.292 37.0136 478.799 51.3357 470.098C51.382 470.947 51.4402 472.786 51.3018 473.356C51.1288 474.068 39.5803 482.096 17.7046 486.887Z" fill="#C5F4F2"/>
<path d="M49.42 461.347C51.9895 454.929 53.1468 444.233 53.0302 439.515C50.9365 439.815 41.0686 436.809 36.7704 435.44C35.5015 440.663 30.1577 450.183 27.7375 452.867C13.5874 458.712 5.66405 467.829 3.47112 471.657C1.16777 496.732 49.3502 475.149 51.0466 471.286C52.4037 468.195 50.5277 463.372 49.42 461.347Z" fill="#F1FEFC"/>
<path d="M12.2767 462.473C13.6679 462.717 17.1378 464.182 19.8876 468.09" stroke="#14D1A4" stroke-width="3" stroke-linecap="round" stroke-linejoin="round"/>
<path d="M18.6611 457.588C20.0523 457.832 23.5222 459.298 26.272 463.205" stroke="#14D1A4" stroke-width="3" stroke-linecap="round" stroke-linejoin="round"/>
<path d="M26.0247 453.191C27.4159 453.436 29.1672 453.68 31.917 457.588" stroke="#14D1A4" stroke-width="3" stroke-linecap="round" stroke-linejoin="round"/>
<path d="M38.7892 427.132L36.7705 435.441C40.5346 441.572 48.098 442.184 51.7055 441.544C52.0683 439.219 53.8003 435.347 54.621 433.702C51.199 428.658 42.6406 427.22 38.7892 427.132Z" fill="#F7FFFD"/>
<path d="M5.4975 471.641C6.1875 476.078 11.2728 483.632 26.0943 478.351" stroke="#AAFEE7" stroke-width="3"/>
<path d="M43.9879 467.076C35.5598 470.577 30.6118 477.428 28.1338 480.35C30.4184 480.095 36.2901 477.621 38.9404 476.415L43.9879 467.076Z" fill="#AAFEE7" stroke="#DAFFF5"/>
<path d="M37.1907 436.994C40.569 437.703 47.6654 439.841 49.0244 442.72C50.7232 446.319 39.0065 442.676 37.1907 436.994Z" fill="white" stroke="#14D1A4"/>
<path d="M37.0792 437.297C38.5878 440.743 41.3675 448.253 40.4169 450.726C38.2491 448.946 34.5466 443.768 37.0792 437.297Z" fill="white" stroke="#14D1A4"/>
<path d="M36.3852 436.744C33.2022 435.413 26.1449 433.15 23.3796 434.747C19.923 436.743 31.6397 440.386 36.3852 436.744Z" stroke="#14D1A4"/>
<path d="M36.3049 437.057C33.0922 439.034 26.5081 443.633 25.8737 446.204C28.6746 445.969 34.682 443.811 36.3049 437.057Z" stroke="#14D1A4"/>
<path d="M37.1945 436.039C37.2935 436.074 37.4302 436.197 37.498 436.507C37.5639 436.809 37.5422 437.219 37.3859 437.652C37.2296 438.086 36.9844 438.416 36.7403 438.607C36.4899 438.803 36.3059 438.812 36.2069 438.776C36.1079 438.741 35.972 438.618 35.9043 438.309C35.8383 438.006 35.8601 437.597 36.0164 437.163C36.1728 436.73 36.4179 436.4 36.662 436.209C36.9122 436.012 37.0954 436.004 37.1945 436.039Z" fill="#14D1A4" stroke="#14D1A4"/>
<path d="M144.227 131.882C155.597 145.377 148.964 159.112 144.227 161.747C130.769 180.514 121.313 162.192 118.123 152.44C116.383 143.743 119.167 138.787 124.504 133.727C129.841 128.666 138.716 127.138 144.227 131.882Z" fill="#FF7CA6"/>
<mask id="mask6_6166_1621" style="mask-type:alpha" maskUnits="userSpaceOnUse" x="117" y="128" width="34" height="42">
<path d="M144.715 131.727C156.085 145.282 149.453 159.078 144.715 161.726C131.257 180.576 121.53 162.094 118.34 152.299C116.6 143.562 119.656 138.663 124.992 133.58C130.329 128.497 139.205 126.961 144.715 131.727Z" fill="#FF7CA6"/>
</mask>
<g mask="url(#mask6_6166_1621)">
<path d="M142.155 133.249C154.43 145.705 149.035 157.336 144.324 159.967C130.941 178.701 119.559 159.782 116.386 150.047C114.656 141.364 115.716 148.964 123.467 146.146C139.454 140.332 141.418 131.784 142.155 133.249Z" fill="#FEB3CB"/>
<path d="M142.155 134.959C155.168 152.544 146.647 159.433 141.91 162.069C128.452 180.835 117.849 157.655 114.658 147.903C117.604 148.392 120.057 152.657 127.916 148.636C136.509 144.24 136.509 145.461 142.155 134.959Z" fill="#FBC6D7"/>
<path d="M141.231 142.508C140.595 140.417 140.812 136.241 142.389 137.105C143.304 137.105 144.391 141.745 144.391 141.745C146.079 146.275 147.168 154.558 145.348 155.962C142.581 152.75 141.115 150.885 134.439 150.589C131.532 146.681 142.389 146.322 141.231 142.508Z" fill="#FEF2F7" fill-opacity="0.3"/>
</g>
<path d="M125.708 108.505C124.923 109.482 121.78 110.541 120.307 110.948C124.726 116.809 135.087 129.216 141.176 131.952C147.264 134.687 148.95 144.489 149.032 149.048C149.425 149.829 149.687 155.235 149.769 157.84C152.322 157.645 153.07 153.688 153.126 151.734C153.64 154.757 153.28 158.915 152.96 161.015C156.496 161.21 161.29 156.538 163.245 154.177C163.712 159.453 163.044 162.327 162.535 163.213C164.499 162.236 169.41 159.061 173.338 154.177C178.248 148.071 172.11 141.965 169.901 140.988C167.691 140.011 167.2 119.496 166.464 114.367C165.874 110.264 159.998 105.005 157.134 102.888C133.81 92.142 126.691 107.284 125.708 108.505Z" fill="url(#paint13_linear_6166_1621)"/>
<path d="M152.23 140.099C150.855 138.731 147.402 141.89 146.092 144.007C145.281 145.228 144.865 149.136 149.775 146.938C154.685 144.739 153.949 141.809 152.23 140.099Z" fill="#FBC6D7" stroke="url(#paint14_linear_6166_1621)"/>
<path fill-rule="evenodd" clip-rule="evenodd" d="M149.559 142.228C148.729 142.951 147.971 144.013 147.529 144.774C147.461 144.891 147.311 144.931 147.193 144.863C147.076 144.795 147.036 144.646 147.104 144.529C147.561 143.743 148.35 142.632 149.235 141.861C149.677 141.476 150.159 141.161 150.65 141.025C151.152 140.886 151.665 140.936 152.128 141.281C152.237 141.362 152.259 141.515 152.177 141.623C152.096 141.731 151.942 141.753 151.834 141.672C151.511 141.431 151.161 141.391 150.782 141.496C150.391 141.604 149.974 141.866 149.559 142.228ZM151.089 142.02C151.194 141.935 151.349 141.95 151.434 142.055C151.63 142.292 151.823 142.587 151.946 142.895C152.067 143.199 152.133 143.547 152.023 143.869C151.908 144.207 151.622 144.455 151.169 144.589C150.725 144.72 150.101 144.749 149.252 144.65C149.117 144.634 149.021 144.513 149.037 144.379C149.052 144.245 149.174 144.149 149.309 144.165C150.129 144.261 150.677 144.225 151.029 144.121C151.373 144.019 151.507 143.861 151.558 143.712C151.614 143.548 151.591 143.329 151.49 143.076C151.39 142.826 151.227 142.574 151.054 142.364C150.969 142.26 150.984 142.106 151.089 142.02Z" fill="#FC719A"/>
<path d="M125.954 141.797C111.027 151.175 100.667 138.622 97.2294 130.807C105.577 122.503 104.111 123.796 111.224 119.816C115.152 117.618 117.116 118.351 118.589 109.803C121.732 110.389 137.248 112.489 142.649 123.48L144.368 123.724C164.991 127.241 167.61 117.781 166.219 112.733C175.843 128.755 154.27 130.562 142.649 129.341C141.667 131.539 140.882 132.418 125.954 141.797Z" fill="url(#paint15_linear_6166_1621)"/>
<mask id="mask7_6166_1621" style="mask-type:alpha" maskUnits="userSpaceOnUse" x="97" y="109" width="72" height="37">
<path d="M125.954 141.797C111.027 151.175 100.667 138.622 97.2294 130.807C105.577 122.503 104.111 123.796 111.224 119.816C115.152 117.618 117.116 118.351 118.589 109.803C121.732 110.389 137.248 112.489 142.649 123.48L144.368 123.724C164.991 127.241 167.61 117.781 166.219 112.733C175.843 128.755 154.27 130.562 142.649 129.341C141.667 131.539 140.882 132.418 125.954 141.797Z" fill="url(#paint16_linear_6166_1621)"/>
</mask>
<g mask="url(#mask7_6166_1621)">
<path d="M110.735 150.59L135.777 138.622C131.112 134.226 121.537 138.613 115.154 132.508C108.77 126.402 115.645 122.006 109.261 120.052L89.3749 129.586L110.735 150.59Z" fill="url(#paint17_linear_6166_1621)" fill-opacity="0.3"/>
<path d="M106.643 124.522C99.1148 127.508 99.9605 129.126 97.4727 132.05L95.7541 129.608L103.856 120.572L117.114 106.628C122.269 109.559 117.233 117.092 115.886 118.107C113.488 119.914 112.066 119.897 110.163 121.948C109.163 123.026 108.01 123.98 106.643 124.522Z" fill="#C1DBF7"/>
</g>
<path d="M118.341 118.839C118.586 121.932 124.97 127.219 140.191 129.417" stroke="#BAD4F6" stroke-linecap="round" stroke-linejoin="round"/>
<path d="M129.821 118.236C125.936 117.307 124.381 116.465 122.456 114.275C121.756 116.188 123.201 120.071 124.143 120.137C124.342 120.151 127.993 118.135 129.821 118.236Z" fill="#B8D2F6"/>
<path d="M124.971 179.408C115.852 169.769 93.3652 147.854 83.2372 139.209C82.6099 138.673 82.2186 137.911 82.4149 137.11C83.8389 131.301 94.1833 113.828 106.803 101.498C109.013 96.1249 110.731 96.3691 113.186 89.5306C115.15 84.0599 120.552 83.3435 123.498 84.4018C124.48 84.7546 123.758 86.255 122.025 86.5999C119.57 87.0883 117.851 89.5307 117.851 90.996C117.851 92.003 116.869 98.323 123.989 95.3922C125.953 92.9499 127.181 97.1018 119.324 102.719C113.186 105.406 95.7549 131.265 97.719 132.515C102.889 134.042 110.313 145.931 126.935 150.588C144.366 155.473 160.57 165.731 154.678 179.408C148.786 193.085 136.756 191.863 124.971 179.408Z" fill="#FF7CA6"/>
<mask id="mask8_6166_1621" style="mask-type:alpha" maskUnits="userSpaceOnUse" x="82" y="83" width="74" height="107">
<path d="M124.971 179.408C115.852 169.769 93.3652 147.854 83.2372 139.209C82.6099 138.673 82.2186 137.911 82.4149 137.11C83.8389 131.301 94.1833 113.828 106.803 101.498C109.013 96.1249 110.731 96.3691 113.186 89.5306C115.15 84.0599 120.552 83.3435 123.498 84.4018C124.48 84.7546 123.758 86.255 122.025 86.5999C119.57 87.0883 117.851 89.5307 117.851 90.996C117.851 92.003 116.869 98.323 123.989 95.3922C125.953 92.9499 127.181 97.1018 119.324 102.719C113.186 105.406 95.7549 131.265 97.719 132.515C102.889 134.042 110.313 145.931 126.935 150.588C144.366 155.473 160.57 165.731 154.678 179.408C148.786 193.085 136.756 191.863 124.971 179.408Z" fill="#FF7CA6"/>
</mask>
<g mask="url(#mask8_6166_1621)">
<path d="M121.784 181.288C112.665 171.649 90.1782 149.733 80.0502 141.088C79.4229 140.553 79.0315 139.791 79.2279 138.99C80.6519 133.181 90.9963 115.707 103.616 103.378C105.826 98.0048 107.544 98.249 109.999 91.4106C111.963 85.9398 120.552 82.3666 123.498 83.4249C124.481 83.7777 124.741 86.4993 123.007 86.8442C120.552 87.3326 119.079 89.224 118.588 90.9337C118.31 91.9019 116.379 97.6019 123.498 94.6711C125.463 92.2288 126.445 97.8346 116.624 103.378C110.486 106.064 92.5679 133.145 94.532 134.395C99.7016 135.922 107.126 147.811 123.748 152.468C141.179 157.353 157.383 167.611 151.491 181.288C145.599 194.964 133.569 193.743 121.784 181.288Z" fill="#FEB3CB"/>
<mask id="mask9_6166_1621" style="mask-type:alpha" maskUnits="userSpaceOnUse" x="79" y="83" width="74" height="109">
<path d="M121.784 181.288C112.665 171.649 90.1782 149.733 80.0502 141.088C79.4229 140.553 79.0315 139.791 79.2279 138.99C80.6519 133.181 90.9963 115.707 103.616 103.378C105.826 98.0048 107.544 98.249 109.999 91.4106C111.963 85.9398 120.552 82.3666 123.498 83.4249C124.481 83.7777 124.741 86.4993 123.007 86.8442C120.552 87.3326 119.079 89.224 118.588 90.9337C118.31 91.9019 116.379 97.6019 123.498 94.6711C125.463 92.2288 126.445 97.8346 116.624 103.378C110.486 106.064 92.5679 133.145 94.532 134.395C99.7016 135.922 107.126 147.811 123.748 152.468C141.179 157.353 157.383 167.611 151.491 181.288C145.599 194.964 133.569 193.743 121.784 181.288Z" fill="#FEB3CB"/>
</mask>
<g mask="url(#mask9_6166_1621)">
<path d="M119.329 181.474C110.211 171.836 87.7236 149.92 77.5957 141.275C76.9683 140.739 76.577 139.977 76.7734 139.176C78.1974 133.367 88.5418 115.894 101.161 103.564C103.371 98.1911 105.09 98.4353 107.545 91.5968C109.509 86.1261 123.745 81.8787 126.691 82.9371C127.673 83.2898 128.655 88.8571 123.99 88.0659C121.522 87.6472 121.785 89.8872 121.293 91.5968C121.015 92.5651 118.098 96.1255 125.218 93.1947C127.182 90.7524 127.427 95.4668 117.607 101.01C111.469 103.697 90.1134 133.331 92.0775 134.581C97.2471 136.108 104.672 147.997 121.293 152.655C138.725 157.539 154.929 167.797 149.036 181.474C143.144 195.151 131.114 193.93 119.329 181.474Z" fill="#FBC6D7"/>
<path d="M122.271 85.1343C127.918 89.5305 127.732 81.7151 123.99 80.9824C119.816 82.6106 107.628 87.9674 106.253 88.5536C104.535 89.2863 79.7973 139.598 77.8332 141.063C76.2619 142.236 88.7176 149.856 93.3005 156.694L144.367 195.038C145.595 189.909 142.256 187.662 137.738 185.513C132.091 182.827 128.409 181.361 125.954 176.965C123.499 172.569 112.205 161.579 107.049 156.694C101.893 151.809 85.1985 140.086 85.1985 136.423C85.1985 133.875 93.0549 121.525 101.893 108.336C113.187 98.3228 116.607 80.7249 122.271 85.1343Z" fill="#FEF2F7"/>
</g>
</g>
<path d="M217.775 225.811C225.332 243.543 221.487 243.795 199.852 252.921C178.217 262.046 154.87 276.619 147.312 258.887C139.755 241.155 127.142 199.244 148.777 190.119C170.412 180.994 210.217 208.079 217.775 225.811Z" fill="url(#paint18_linear_6166_1621)"/>
<ellipse cx="44.2652" cy="38.215" rx="44.2652" ry="38.215" transform="matrix(0.921396 -0.388626 0.39209 0.919927 127.673 224.314)" fill="url(#paint19_radial_6166_1621)" fill-opacity="0.5"/>
<ellipse cx="41.2116" cy="34.8103" rx="41.2116" ry="34.8103" transform="matrix(0.921396 -0.388626 0.39209 0.919927 131.601 226.826)" fill="#38FF26" fill-opacity="0.2"/>
<ellipse cx="39.0055" cy="32.0199" rx="39.0055" ry="32.0199" transform="matrix(0.921396 -0.388625 0.392091 0.919927 134.546 227.555)" fill="url(#paint20_radial_6166_1621)"/>
<mask id="mask10_6166_1621" style="mask-type:alpha" maskUnits="userSpaceOnUse" x="144" y="208" width="78" height="67">
<ellipse cx="39.0055" cy="32.0199" rx="39.0055" ry="32.0199" transform="matrix(0.921396 -0.388626 0.392091 0.919927 134.546 227.553)" fill="#68FF92"/>
</mask>
<g mask="url(#mask10_6166_1621)">
<path d="M150.089 175.594C169.442 167.432 190.107 173.831 196.613 189.095C203.118 204.358 193.376 223.584 174.023 231.747C154.669 239.909 134.004 233.51 127.498 218.246C120.993 202.982 130.736 183.757 150.089 175.594Z" stroke="url(#paint21_radial_6166_1621)" stroke-width="3"/>
<path d="M195.896 262.558C211.837 255.835 230.075 263.007 236.671 278.483C243.267 293.959 235.77 311.987 219.83 318.71C203.889 325.434 185.65 318.261 179.054 302.785C172.458 287.309 179.956 269.281 195.896 262.558Z" stroke="url(#paint22_linear_6166_1621)" stroke-width="3"/>
</g>
<defs>
<linearGradient id="paint0_linear_6166_1621" x1="207.013" y1="313.229" x2="187.698" y2="442.772" gradientUnits="userSpaceOnUse">
<stop stop-color="#FF78A3"/>
<stop offset="1" stop-color="#FF8EB2"/>
</linearGradient>
<linearGradient id="paint1_linear_6166_1621" x1="153.211" y1="255.119" x2="132.536" y2="329.177" gradientUnits="userSpaceOnUse">
<stop stop-color="#78AEEC"/>
<stop offset="1" stop-color="#142AE9"/>
</linearGradient>
<linearGradient id="paint2_linear_6166_1621" x1="153.211" y1="255.119" x2="132.536" y2="329.177" gradientUnits="userSpaceOnUse">
<stop stop-color="#78AEEC"/>
<stop offset="1" stop-color="#142AE9"/>
</linearGradient>
<linearGradient id="paint3_linear_6166_1621" x1="169.899" y1="291.022" x2="158.853" y2="289.541" gradientUnits="userSpaceOnUse">
<stop stop-color="#C1C5FF"/>
<stop offset="1" stop-color="#C1C5FF" stop-opacity="0"/>
</linearGradient>
<linearGradient id="paint4_linear_6166_1621" x1="159.093" y1="279.298" x2="154.958" y2="290.547" gradientUnits="userSpaceOnUse">
<stop stop-color="#C1C5FF"/>
<stop offset="1" stop-color="#C7CAFF" stop-opacity="0"/>
</linearGradient>
<linearGradient id="paint5_linear_6166_1621" x1="121.285" y1="273.924" x2="117.882" y2="258.53" gradientUnits="userSpaceOnUse">
<stop stop-color="#DBF3F8"/>
<stop offset="1" stop-color="#99B5F3"/>
</linearGradient>
<linearGradient id="paint6_linear_6166_1621" x1="146.154" y1="154.253" x2="149.312" y2="287.359" gradientUnits="userSpaceOnUse">
<stop stop-color="#94BFFF"/>
<stop offset="1" stop-color="#0D25FE"/>
</linearGradient>
<linearGradient id="paint7_linear_6166_1621" x1="146.154" y1="154.253" x2="149.312" y2="287.359" gradientUnits="userSpaceOnUse">
<stop stop-color="#94BFFF"/>
<stop offset="1" stop-color="#0D25FE"/>
</linearGradient>
<linearGradient id="paint8_linear_6166_1621" x1="115.39" y1="224.057" x2="126.457" y2="271.195" gradientUnits="userSpaceOnUse">
<stop stop-color="#99B5F3"/>
<stop offset="1" stop-color="#DBF3F8"/>
</linearGradient>
<linearGradient id="paint9_linear_6166_1621" x1="140.905" y1="273.926" x2="124.329" y2="249.666" gradientUnits="userSpaceOnUse">
<stop stop-color="#C1C5FF"/>
<stop offset="1" stop-color="#C1C5FF" stop-opacity="0"/>
</linearGradient>
<linearGradient id="paint10_linear_6166_1621" x1="141.909" y1="261.226" x2="131.153" y2="245.061" gradientUnits="userSpaceOnUse">
<stop stop-color="#C1C5FF"/>
<stop offset="1" stop-color="#C1C5FF" stop-opacity="0"/>
</linearGradient>
<linearGradient id="paint11_linear_6166_1621" x1="164.498" y1="165.242" x2="168.428" y2="186.934" gradientUnits="userSpaceOnUse">
<stop stop-color="#C1C5FF"/>
<stop offset="1" stop-color="#C1C5FF" stop-opacity="0"/>
</linearGradient>
<linearGradient id="paint12_linear_6166_1621" x1="123.249" y1="199.665" x2="117.416" y2="168.637" gradientUnits="userSpaceOnUse">
<stop stop-color="#99B5F3"/>
<stop offset="1" stop-color="#DBF3F8"/>
</linearGradient>
<linearGradient id="paint13_linear_6166_1621" x1="147.559" y1="123.159" x2="147.749" y2="163.213" gradientUnits="userSpaceOnUse">
<stop stop-color="#050753"/>
<stop offset="1" stop-color="#008294"/>
</linearGradient>
<linearGradient id="paint14_linear_6166_1621" x1="152.224" y1="141.965" x2="146.588" y2="144.674" gradientUnits="userSpaceOnUse">
<stop stop-color="#FC719A"/>
<stop offset="1" stop-color="#FC719A" stop-opacity="0"/>
</linearGradient>
<linearGradient id="paint15_linear_6166_1621" x1="100.176" y1="143.018" x2="169.834" y2="120.827" gradientUnits="userSpaceOnUse">
<stop stop-color="#2B02CD"/>
<stop offset="0.511301" stop-color="#5899FF"/>
<stop offset="0.857583" stop-color="#5EC0DF"/>
<stop offset="1" stop-color="white"/>
</linearGradient>
<linearGradient id="paint16_linear_6166_1621" x1="136.511" y1="127.632" x2="174.315" y2="123.19" gradientUnits="userSpaceOnUse">
<stop stop-color="#02C3CD"/>
<stop offset="1" stop-color="white"/>
</linearGradient>
<linearGradient id="paint17_linear_6166_1621" x1="111.471" y1="143.019" x2="113.415" y2="124.699" gradientUnits="userSpaceOnUse">
<stop stop-color="white"/>
<stop offset="1" stop-color="#003BD5" stop-opacity="0"/>
<stop offset="1" stop-color="white"/>
</linearGradient>
<linearGradient id="paint18_linear_6166_1621" x1="148.54" y1="202.853" x2="189.373" y2="274.106" gradientUnits="userSpaceOnUse">
<stop stop-color="#F5FF7C" stop-opacity="0"/>
<stop offset="0.544444" stop-color="#00FF47"/>
<stop offset="1" stop-color="#00A72F"/>
</linearGradient>
<radialGradient id="paint19_radial_6166_1621" cx="0" cy="0" r="1" gradientTransform="matrix(5.77797 -56.1169 65.0013 6.94078 44.796 85.0437)" gradientUnits="userSpaceOnUse">
<stop stop-color="#FFEC3E"/>
<stop offset="1" stop-color="#1EB910" stop-opacity="0"/>
</radialGradient>
<radialGradient id="paint20_radial_6166_1621" cx="0" cy="0" r="1" gradientTransform="matrix(-1.35291 74.5619 -90.8289 -1.63611 36.9138 4.67396)" gradientUnits="userSpaceOnUse">
<stop stop-color="#F5FF7C"/>
<stop offset="0.546875" stop-color="#00FF47"/>
<stop offset="1" stop-color="#00A72F"/>
</radialGradient>
<radialGradient id="paint21_radial_6166_1621" cx="0" cy="0" r="1" gradientTransform="matrix(-8.83847 -47.625 58.1078 -10.6716 170.883 246.082)" gradientUnits="userSpaceOnUse">
<stop stop-color="white"/>
<stop offset="1" stop-color="white" stop-opacity="0"/>
</radialGradient>
<linearGradient id="paint22_linear_6166_1621" x1="188.804" y1="248.524" x2="201.223" y2="272.268" gradientUnits="userSpaceOnUse">
<stop stop-color="white"/>
<stop offset="1" stop-color="white" stop-opacity="0"/>
</linearGradient>
<clipPath id="clip0_6166_1621">
<rect width="109.613" height="142.3" fill="white" transform="matrix(0.897913 0.440173 -0.443897 0.896078 146.152 -16)"/>
</clipPath>
<clipPath id="clip1_6166_1621">
<rect width="141.68" height="95.96" fill="white" transform="translate(89.4642 17.3408)"/>
</clipPath>
</defs>
</svg>
